<svg width="165" height="53" viewBox="0 0 165 53" fill="none" xmlns="http://www.w3.org/2000/svg">
<g clip-path="url(#clip0_83_1108)">
<path fill-rule="evenodd" clip-rule="evenodd" d="M9.42858 36.8962L0.589294 43.8269C3.92858 48.7192 9.82143 52.3885 18.0714 52.3885C30.25 52.3885 37.3214 44.8462 37.3214 34.8577C37.3214 29.7615 34.375 26.7038 31.2321 23.85L28.0893 20.7923C26.125 18.9577 25.1429 17.5308 25.1429 15.6961C25.1429 13.25 26.7143 11.0077 30.4464 11.0077C33 11.0077 35.5536 12.0269 37.9107 14.6769L46.75 7.74616C44.5893 4.28077 39.4821 0.611542 31.625 0.611542C21.0179 0.611542 13.1607 7.94999 13.1607 17.5308C13.1607 22.2192 15.7143 25.4808 19.0536 28.5385L22.1964 31.5961C24.3572 33.6346 25.3393 34.8577 25.3393 36.6923C25.3393 39.1385 23.5714 41.7885 18.8571 41.7885C15.125 41.7885 11.7857 39.9539 9.42858 36.8962ZM126.893 36.8962L118.054 43.8269C121.196 48.7192 127.286 52.3885 135.536 52.3885C147.714 52.3885 154.786 44.8462 154.786 34.8577C154.786 29.7615 151.839 26.7038 148.696 23.85L145.554 20.7923C143.589 18.9577 142.607 17.5308 142.607 15.6961C142.607 13.25 144.179 11.0077 147.911 11.0077C150.464 11.0077 153.018 12.0269 155.375 14.6769L164.214 7.74616C162.054 4.28077 156.946 0.611542 149.089 0.611542C138.482 0.611542 130.625 7.94999 130.625 17.5308C130.625 22.2192 133.179 25.4808 136.518 28.5385L139.661 31.5961C141.821 33.6346 142.804 34.8577 142.804 36.6923C142.804 39.1385 141.036 41.7885 136.321 41.7885C132.589 41.7885 129.25 39.9539 126.893 36.8962ZM125.321 12.0269H113.929L103.321 51.1654H91.5357L102.143 12.0269H89.9643L92.9107 1.42691H128.464L125.321 12.0269ZM82.1071 51.3692V1.63077H65.8036L37.5179 51.3692H50.0893L55.5893 40.9731H71.6964V51.3692H82.1071ZM71.6964 11.2115V30.3731H61.2857L71.6964 11.2115Z" fill="#FEFDFA"/>
</g>
<defs>
<clipPath id="clip0_83_1108">
<rect width="165" height="53" fill="white"/>
</clipPath>
</defs>
</svg>
