<svg width="79" height="25" viewBox="0 0 79 25" fill="none" xmlns="http://www.w3.org/2000/svg">
<g clip-path="url(#clip0_3720_85)">
<path fill-rule="evenodd" clip-rule="evenodd" d="M4.51429 17.4039L0.282146 20.6731C1.88096 22.9808 4.70238 24.7115 8.65238 24.7115C14.4833 24.7115 17.869 21.1539 17.869 16.4423C17.869 14.0385 16.4583 12.5962 14.9536 11.25L13.4488 9.80769C12.5083 8.94231 12.0381 8.26923 12.0381 7.40385C12.0381 6.25 12.7905 5.19231 14.5774 5.19231C15.8 5.19231 17.0226 5.67308 18.1512 6.92308L22.3833 3.65385C21.3488 2.01924 18.9036 0.288467 15.1417 0.288467C10.0631 0.288467 6.30119 3.75 6.30119 8.26923C6.30119 10.4808 7.52381 12.0192 9.12262 13.4615L10.6274 14.9039C11.6619 15.8654 12.1321 16.4423 12.1321 17.3077C12.1321 18.4615 11.2857 19.7115 9.02857 19.7115C7.24167 19.7115 5.64286 18.8462 4.51429 17.4039ZM60.7548 17.4039L56.5226 20.6731C58.0274 22.9808 60.9429 24.7115 64.8929 24.7115C70.7238 24.7115 74.1095 21.1539 74.1095 16.4423C74.1095 14.0385 72.6988 12.5962 71.194 11.25L69.6893 9.80769C68.7488 8.94231 68.2786 8.26923 68.2786 7.40385C68.2786 6.25 69.031 5.19231 70.8179 5.19231C72.0405 5.19231 73.2631 5.67308 74.3917 6.92308L78.6238 3.65385C77.5893 2.01924 75.144 0.288467 71.3821 0.288467C66.3036 0.288467 62.5417 3.75 62.5417 8.26923C62.5417 10.4808 63.7643 12.0192 65.3631 13.4615L66.8679 14.9039C67.9024 15.8654 68.3726 16.4423 68.3726 17.3077C68.3726 18.4615 67.5262 19.7115 65.269 19.7115C63.4821 19.7115 61.8833 18.8462 60.7548 17.4039ZM60.0024 5.67308H54.5476L49.4691 24.1346H43.8262L48.9048 5.67308H43.0738L44.4845 0.673077H61.5071L60.0024 5.67308ZM39.3119 24.2308V0.769237H31.506L17.9631 24.2308H23.9821L26.6155 19.3269H34.3274V24.2308H39.3119ZM34.3274 5.28846V14.3269H29.3429L34.3274 5.28846Z" fill="#14233C"/>
</g>
<defs>
<clipPath id="clip0_3720_85">
<rect width="79" height="25" fill="white"/>
</clipPath>
</defs>
</svg>
