<?xml version="1.0" encoding="UTF-8"?><svg id="Logo" xmlns="http://www.w3.org/2000/svg" viewBox="0 0 738.73 438.86"><defs><style>.cls-1{fill:#4dacd7;}.cls-1,.cls-2,.cls-3,.cls-4,.cls-5{stroke-width:0px;}.cls-2{fill:#c2cad6;}.cls-3{fill:#b9c4d1;}.cls-4{fill:#ffa4b9;}.cls-5{fill:#00b8d8;}</style></defs><g id="Unity"><path class="cls-5" d="m0,277.85v-116.39h44.5v117.9c0,17.6,9.05,29.41,30.92,29.41,20.61,0,30.42-12.57,30.42-30.17v-117.15h44.5v116.39c0,41.48-24.89,66.62-74.91,66.62S0,319.83,0,277.85Z"/><path class="cls-5" d="m347.54,161.45h44.5v179.74h-44.5v-179.74Z"/><path class="cls-5" d="m465.06,199.16h-52.29v-37.71h149.58v37.71h-52.79v142.04h-44.5v-142.04Z"/><path class="cls-5" d="m279.29,161.45v85.22c0,6.28.5,27.9.5,27.9h-.5s-9.55-17.85-12.32-22.88l-53.29-90.25h-38.93l39.93,69.73h-41.96v109.74h41.96v-109.73l52.87,92.33,10.49,17.68h44.75v-179.74h-43.49Z"/><path class="cls-5" d="m738.73,161.45h-46.94l-34.28,69.79c-5.41-10.73-10.3-20.48-12.45-24.87l-22.34-44.91h-48.46l59.98,111.78v67.96h44.5v-67.96s-11.46-22.6-21.23-41.99h43.93s37.29-69.79,37.29-69.79Z"/></g><g id="Symbol"><path class="cls-4" d="m338.58,110.06s0,0,0,0c-.17-.45-.33-.9-.49-1.35-.01-.04-.02-.07-.04-.11-.14-.43-.28-.86-.4-1.3-.02-.07-.04-.15-.06-.22-.11-.41-.22-.81-.32-1.23-.03-.11-.05-.23-.08-.35-.09-.38-.17-.76-.24-1.14-.03-.16-.06-.33-.09-.49-.06-.34-.12-.69-.17-1.04-.03-.22-.06-.45-.08-.67-.04-.3-.08-.6-.11-.9-.03-.3-.05-.61-.07-.92-.02-.23-.04-.46-.05-.69-.03-.55-.04-1.09-.04-1.65s.02-1.08.04-1.61c0-.18.02-.35.03-.53.02-.36.05-.72.08-1.07.02-.2.04-.41.07-.61.04-.32.08-.65.12-.97.03-.21.06-.42.1-.63.05-.31.11-.63.17-.94.04-.21.08-.41.12-.62.07-.32.14-.64.22-.95.05-.19.09-.38.14-.57.1-.38.21-.76.32-1.13.04-.12.07-.24.1-.36.15-.48.31-.95.48-1.42.07-.2.15-.39.22-.58.11-.28.21-.56.33-.83.09-.22.19-.44.29-.66.11-.24.21-.48.33-.72.11-.23.22-.45.33-.68.11-.22.22-.44.34-.66.12-.23.25-.46.37-.69.11-.2.23-.4.34-.6.14-.24.28-.48.42-.71.1-.16.21-.33.31-.49.6-.94,1.25-1.85,1.94-2.72.08-.1.16-.2.24-.3.22-.27.44-.53.66-.79.09-.11.19-.22.28-.33.23-.26.46-.51.7-.77.09-.1.18-.19.27-.29.25-.26.51-.52.76-.77.07-.07.14-.14.22-.21.29-.27.57-.54.87-.81,0,0,0,0,0,0,1.37-1.22,2.85-2.33,4.41-3.32,0,0,0,0,.01,0,.38-.24.76-.47,1.15-.69.02-.01.04-.03.07-.04.39-.22.79-.44,1.19-.65,0,0,0,0,0,0,2.48-1.29,5.13-2.27,7.92-2.9,0,0,0,0,0,0h0c.08-1.31.14-2.63.14-3.96,0-33.93-27.51-61.44-61.44-61.44s-61.44,27.51-61.44,61.44,27.51,61.44,61.44,61.44c14.15,0,27.17-4.79,37.55-12.83h0Z"/><path class="cls-3" d="m369.79,64.55c-2.57,0-5.06.3-7.46.85-.07,1.11-.17,2.22-.3,3.31,0,.06-.02.13-.02.19-.13,1.03-.28,2.06-.45,3.08-.02.09-.03.18-.05.28-.18,1-.38,1.98-.6,2.96-.02.09-.04.19-.07.28-.23.99-.49,1.96-.76,2.93-.02.07-.04.15-.06.22-.29,1.01-.61,2-.95,2.99,0,.03-.02.05-.03.08-2.87,8.22-7.45,15.64-13.3,21.85-.02.02-.05.05-.07.07-.71.75-1.43,1.47-2.17,2.18-.03.03-.07.06-.1.1-.74.71-1.5,1.39-2.28,2.06-.03.02-.05.05-.08.07-.8.69-1.62,1.35-2.45,2,4.84,12.52,16.98,21.41,31.21,21.41,18.48,0,33.45-14.98,33.45-33.45s-14.98-33.45-33.45-33.45Z"/><path class="cls-2" d="m338.88,85.2c.09-.22.19-.44.29-.66-.1.22-.19.44-.29.66Z"/><path class="cls-2" d="m337.19,105.5c-.09-.38-.17-.76-.24-1.14.07.38.16.76.24,1.14Z"/><path class="cls-2" d="m338.33,86.61c.07-.2.15-.39.22-.58-.07.19-.15.39-.22.58Z"/><path class="cls-2" d="m337.59,107.07c-.11-.41-.22-.81-.32-1.23.1.41.21.82.32,1.23Z"/><path class="cls-2" d="m340.88,81.18c.14-.24.28-.48.42-.71-.14.23-.28.47-.42.71Z"/><path class="cls-2" d="m338.05,108.59c-.14-.43-.28-.86-.4-1.3.13.44.26.87.4,1.3Z"/><path class="cls-2" d="m337.75,88.38c.04-.12.07-.24.1-.36-.04.12-.07.24-.1.36Z"/><path class="cls-2" d="m340.16,82.48c.12-.23.25-.46.37-.69-.13.23-.25.46-.37.69Z"/><path class="cls-2" d="m339.49,83.82c.11-.23.22-.45.33-.68-.11.23-.22.45-.33.68Z"/><path class="cls-2" d="m341.61,79.98c.6-.94,1.25-1.85,1.94-2.72-.69.87-1.34,1.78-1.94,2.72Z"/><path class="cls-2" d="m336.49,94.8c.02-.2.04-.41.07-.61-.02.2-.05.41-.07.61Z"/><path class="cls-2" d="m336.43,100.35c-.02-.23-.04-.46-.05-.69.01.23.03.46.05.69Z"/><path class="cls-2" d="m336.6,102.16c-.04-.3-.08-.6-.11-.9.03.3.07.6.11.9Z"/><path class="cls-2" d="m336.38,96.4c0-.18.02-.35.03-.53-.01.18-.03.35-.03.53Z"/><path class="cls-2" d="m336.86,103.87c-.06-.34-.12-.69-.17-1.04.05.35.11.69.17,1.04Z"/><path class="cls-2" d="m337.29,90.08c.05-.19.09-.38.14-.57-.05.19-.09.38-.14.57Z"/><path class="cls-2" d="m336.95,91.65c.04-.21.08-.41.12-.62-.04.21-.08.41-.12.62Z"/><path class="cls-2" d="m336.68,93.22c.03-.21.06-.42.1-.63-.03.21-.07.42-.1.63Z"/><path class="cls-2" d="m343.39,105.92c-.74.71-1.5,1.39-2.28,2.06.78-.67,1.54-1.36,2.28-2.06Z"/><path class="cls-2" d="m360.01,78.65c-.29,1.01-.61,2-.95,2.99.34-.99.66-1.98.95-2.99Z"/><path class="cls-2" d="m353.21,68.95c.39-.22.79-.44,1.19-.65-.4.21-.8.43-1.19.65Z"/><path class="cls-2" d="m359.03,81.72c-2.87,8.22-7.45,15.64-13.3,21.85,5.85-6.21,10.42-13.63,13.3-21.85Z"/><path class="cls-2" d="m347.57,73.01c1.37-1.22,2.85-2.33,4.41-3.32-1.56.99-3.04,2.09-4.41,3.32Z"/><path class="cls-2" d="m351.99,69.69c.38-.24.76-.47,1.15-.69-.39.22-.77.45-1.15.69Z"/><path class="cls-2" d="m360.83,75.5c-.23.99-.49,1.96-.76,2.93.28-.97.53-1.94.76-2.93Z"/><path class="cls-2" d="m338.58,110.06h0c.83-.65,1.65-1.31,2.45-2-.8.69-1.62,1.35-2.45,2Z"/><path class="cls-2" d="m354.41,68.3c2.48-1.28,5.13-2.27,7.92-2.9-2.79.64-5.45,1.62-7.92,2.9Z"/><path class="cls-2" d="m362,68.9c-.13,1.03-.28,2.06-.45,3.08.18-1.02.33-2.04.45-3.08Z"/><path class="cls-2" d="m361.5,72.26c-.18,1-.38,1.98-.6,2.96.22-.98.42-1.97.6-2.96Z"/><path class="cls-2" d="m362.03,68.71c.13-1.1.23-2.2.3-3.31h0c-.07,1.11-.17,2.22-.3,3.31Z"/><path class="cls-2" d="m345.66,103.64c-.71.75-1.43,1.47-2.17,2.18.74-.71,1.47-1.44,2.17-2.18Z"/><path class="cls-2" d="m345.71,74.79c.25-.26.51-.52.76-.77-.26.25-.51.51-.76.77Z"/><path class="cls-2" d="m344.74,75.85c.23-.26.46-.51.7-.77-.24.25-.47.51-.7.77Z"/><path class="cls-2" d="m338.58,110.05c-.17-.45-.33-.9-.49-1.35.15.46.32.91.49,1.35Z"/><path class="cls-2" d="m343.79,76.96c.22-.27.44-.53.66-.79-.22.26-.45.52-.66.79Z"/><path class="cls-2" d="m346.69,73.82c.29-.27.57-.54.87-.81-.3.26-.58.53-.87.81Z"/><path class="cls-1" d="m338.09,108.7s-.02-.07-.04-.11c.01.04.02.07.04.11Z"/><path class="cls-1" d="m336.5,101.26c-.03-.3-.05-.61-.07-.92.02.31.04.61.07.92Z"/><path class="cls-1" d="m336.38,99.65c-.03-.55-.04-1.09-.04-1.65,0,.55.01,1.1.04,1.65Z"/><path class="cls-1" d="m337.27,105.85c-.03-.11-.05-.23-.08-.35.03.12.05.23.08.35Z"/><path class="cls-1" d="m337.65,107.29c-.02-.07-.04-.15-.06-.22.02.07.04.15.06.22Z"/><path class="cls-1" d="m336.95,104.36c-.03-.16-.06-.33-.09-.49.03.16.06.33.09.49Z"/><polygon class="cls-1" points="338.58 110.06 338.58 110.06 338.58 110.05 338.58 110.06"/><path class="cls-1" d="m336.69,102.83c-.03-.22-.06-.45-.08-.67.03.22.05.45.08.67Z"/><path class="cls-1" d="m337.43,89.51c.1-.38.21-.76.32-1.13-.11.38-.22.75-.32,1.13Z"/><path class="cls-1" d="m345.44,75.08c.09-.1.18-.19.27-.29-.09.09-.18.19-.27.29Z"/><path class="cls-1" d="m341.3,80.47c.1-.16.21-.33.31-.49-.1.16-.21.32-.31.49Z"/><path class="cls-1" d="m343.56,77.26c.08-.1.16-.2.24-.3-.08.1-.16.2-.24.3Z"/><path class="cls-1" d="m344.46,76.17c.09-.11.19-.22.28-.33-.1.11-.19.22-.28.33Z"/><path class="cls-1" d="m347.56,73.01s0,0,0,0c0,0,0,0,0,0Z"/><path class="cls-1" d="m346.48,74.02c.07-.07.14-.14.22-.21-.07.07-.14.14-.22.21Z"/><polygon class="cls-1" points="362.33 65.4 362.33 65.4 362.33 65.4 362.33 65.4"/><path class="cls-1" d="m354.4,68.31s0,0,0,0c0,0,0,0,0,0Z"/><path class="cls-1" d="m353.14,68.99s.04-.03.07-.04c-.02.01-.04.03-.07.04Z"/><path class="cls-1" d="m351.98,69.69s0,0,.01,0c0,0,0,0-.01,0Z"/><path class="cls-1" d="m336.78,92.59c.05-.31.11-.63.17-.94-.06.31-.12.62-.17.94Z"/><path class="cls-1" d="m337.07,91.03c.07-.32.14-.64.22-.95-.08.32-.15.63-.22.95Z"/><path class="cls-1" d="m337.85,88.02c.15-.48.31-.95.48-1.42-.17.47-.33.94-.48,1.42Z"/><path class="cls-1" d="m336.33,98.01c0-.54.02-1.08.04-1.61-.03.53-.04,1.07-.04,1.61Z"/><path class="cls-1" d="m336.56,94.19c.04-.32.08-.65.12-.97-.05.32-.09.64-.12.97Z"/><path class="cls-1" d="m336.41,95.87c.02-.36.05-.72.08-1.07-.03.36-.06.71-.08,1.07Z"/><path class="cls-1" d="m340.53,81.78c.11-.2.23-.4.34-.6-.12.2-.23.4-.34.6Z"/><path class="cls-1" d="m338.55,86.03c.11-.28.21-.56.33-.83-.11.27-.22.55-.33.83Z"/><path class="cls-1" d="m339.17,84.54c.11-.24.21-.48.33-.72-.11.24-.22.48-.33.72Z"/><path class="cls-1" d="m339.82,83.14c.11-.22.22-.44.34-.66-.11.22-.23.44-.34.66Z"/><path class="cls-1" d="m360.9,75.22c-.02.09-.04.19-.07.28.02-.09.04-.19.07-.28Z"/><path class="cls-1" d="m361.55,71.98c-.02.09-.03.18-.05.28.02-.09.03-.18.05-.28Z"/><path class="cls-1" d="m362.03,68.71c0,.06-.02.13-.02.19,0-.06.02-.13.02-.19Z"/><path class="cls-1" d="m345.73,103.57s-.05.05-.07.07c.02-.02.05-.05.07-.07Z"/><path class="cls-1" d="m359.05,81.64s-.02.05-.03.08c0-.03.02-.05.03-.08Z"/><path class="cls-1" d="m343.49,105.82s-.07.06-.1.1c.03-.03.07-.06.1-.1Z"/><path class="cls-1" d="m360.07,78.43c-.02.07-.04.15-.06.22.02-.07.04-.15.06-.22Z"/><path class="cls-1" d="m341.11,107.98s-.06.05-.08.07c.03-.02.06-.05.08-.07Z"/><path class="cls-5" d="m362.33,65.4c-2.79.64-5.45,1.62-7.92,2.9,0,0,0,0,0,0-.4.21-.8.43-1.19.65-.02.01-.04.03-.07.04-.39.22-.77.45-1.15.69,0,0,0,0-.01,0-1.56.98-3.04,2.09-4.41,3.32,0,0,0,0,0,0-.3.26-.58.53-.87.81-.07.07-.14.14-.22.21-.26.25-.51.51-.76.77-.09.09-.18.19-.27.29-.24.25-.47.51-.7.77-.1.11-.19.22-.28.33-.22.26-.45.52-.66.79-.08.1-.16.2-.24.3-.69.87-1.34,1.78-1.94,2.72-.1.16-.21.32-.31.49-.14.23-.28.47-.42.71-.12.2-.23.4-.34.6-.13.23-.25.46-.37.69-.11.22-.23.44-.34.66-.11.23-.22.45-.33.68-.11.24-.22.48-.33.72-.1.22-.19.44-.29.66-.11.27-.22.55-.33.83-.07.19-.15.39-.22.58-.17.47-.33.94-.48,1.42-.04.12-.07.24-.1.36-.11.38-.22.75-.32,1.13-.05.19-.09.38-.14.57-.08.32-.15.63-.22.95-.04.21-.08.41-.12.62-.06.31-.12.62-.17.94-.03.21-.07.42-.1.63-.05.32-.09.64-.12.97-.02.2-.05.41-.07.61-.03.36-.06.71-.08,1.07-.01.18-.03.35-.03.53-.03.53-.04,1.07-.04,1.61s.02,1.1.04,1.65c.01.23.03.46.05.69.02.31.04.61.07.92.03.3.07.6.11.9.03.22.05.45.08.67.05.35.11.69.17,1.04.03.16.06.33.09.49.07.38.16.76.24,1.14.03.12.05.23.08.35.1.41.21.82.32,1.23.02.07.04.15.06.22.13.44.26.87.4,1.3.01.04.02.07.04.11.15.46.32.91.49,1.35,0,0,0,0,0,0,.83-.65,1.65-1.31,2.45-2,.03-.02.06-.05.08-.07.78-.67,1.54-1.36,2.28-2.06.03-.03.07-.06.1-.1.74-.71,1.47-1.44,2.17-2.18.02-.02.05-.05.07-.07,5.85-6.21,10.42-13.63,13.3-21.85,0-.02.02-.05.03-.08.34-.98.66-1.98.95-2.99.02-.07.04-.15.06-.22.28-.97.53-1.94.76-2.93.02-.09.04-.19.07-.28.22-.98.42-1.97.6-2.96.02-.09.03-.18.05-.28.18-1.02.33-2.04.45-3.08,0-.06.02-.13.02-.19.13-1.1.23-2.2.3-3.31,0,0,0,0,0,0Z"/></g><path class="cls-5" d="m453.81,371.32v32.03c0,2.36.19,10.49.19,10.49h-.19s-3.59-6.71-4.63-8.6l-20.03-33.91h-14.63l15,26.2h-15.77v41.24h15.77v-41.24l19.87,34.7,3.94,6.64h16.82v-67.55h-16.34Z"/><path class="cls-5" d="m196.93,371.32h17.16l24.32,67.41h-17.54l-3.96-12.16h-23.57l-3.87,12.16h-16.78l24.23-67.41Zm16.12,43.27l-5.09-16.31c-1.13-3.49-2.64-9.52-2.64-9.52h-.19s-1.6,6.03-2.73,9.52l-5.19,16.31h15.84Z"/><polygon class="cls-5" points="316.87 438.73 299.69 438.73 280.35 402.81 299.02 402.81 316.87 438.73"/><path class="cls-5" d="m285.99,413.46h-10.09v25.27h-16.69v-67.41h32.24c13.39,0,23.57,6.88,23.57,19.42,0,7.83-5.21,14.87-13.04,17.6m-13.55-7.23c6.6,0,9.99-3.11,9.99-8.2s-3.21-8.39-9.62-8.39h-12.92v16.59h12.54Z"/><path class="cls-5" d="m338.93,371.32h51.1v13.77h-34.41v12.07h29.51v13.01h-29.51v14.42h34.98v14.14h-51.67v-67.41Z"/><path class="cls-5" d="m520.92,371.32h17.16l24.32,67.41h-17.54l-3.96-12.16h-23.57l-3.87,12.16h-16.78l24.23-67.41Zm16.12,43.27l-5.09-16.31c-1.13-3.49-2.64-9.52-2.64-9.52h-.19s-1.6,6.03-2.73,9.52l-5.19,16.31h15.84Z"/></svg>