<svg xmlns="http://www.w3.org/2000/svg"  viewBox="0 0 100 100" width="100px" height="100px" baseProfile="basic"><path fill="#c7ede6" d="M87.215,56.71C88.35,54.555,89,52.105,89,49.5c0-6.621-4.159-12.257-10.001-14.478 C78.999,35.015,79,35.008,79,35c0-11.598-9.402-21-21-21c-9.784,0-17.981,6.701-20.313,15.757C36.211,29.272,34.638,29,33,29 c-7.692,0-14.023,5.793-14.89,13.252C12.906,43.353,9,47.969,9,53.5C9,59.851,14.149,65,20.5,65c0.177,0,0.352-0.012,0.526-0.022 C21.022,65.153,21,65.324,21,65.5C21,76.822,30.178,86,41.5,86c6.437,0,12.175-2.972,15.934-7.614C59.612,80.611,62.64,82,66,82 c4.65,0,8.674-2.65,10.666-6.518C77.718,75.817,78.837,76,80,76c6.075,0,11-4.925,11-11C91,61.689,89.53,58.727,87.215,56.71z"/><path fill="#fff" d="M14.405,52H4.5C4.224,52,4,51.776,4,51.5S4.224,51,4.5,51h9.905c0.276,0,0.5,0.224,0.5,0.5 S14.682,52,14.405,52z M17.5,52h-1c-0.276,0-0.5-0.224-0.5-0.5s0.224-0.5,0.5-0.5h1c0.276,0,0.5,0.224,0.5,0.5S17.777,52,17.5,52z M22.491,54H13.5c-0.276,0-0.5-0.224-0.5-0.5s0.224-0.5,0.5-0.5h8.991c0.276,0,0.5,0.224,0.5,0.5S22.767,54,22.491,54z M11.5,54 h-1c-0.276,0-0.5-0.224-0.5-0.5s0.224-0.5,0.5-0.5h1c0.276,0,0.5,0.224,0.5,0.5S11.777,54,11.5,54z M8.5,54h-2 C6.224,54,6,53.776,6,53.5S6.224,53,6.5,53h2C8.776,53,9,53.224,9,53.5S8.777,54,8.5,54z M14.5,56h-2c-0.276,0-0.5-0.224-0.5-0.5 s0.224-0.5,0.5-0.5h2c0.276,0,0.5,0.224,0.5,0.5S14.776,56,14.5,56z M17.5,47c-0.177,0-0.823,0-1,0c-0.276,0-0.5,0.224-0.5,0.5 s0.224,0.5,0.5,0.5c0.177,0,0.823,0,1,0c0.276,0,0.5-0.224,0.5-0.5S17.776,47,17.5,47z M17.5,49c-0.177,0-4.823,0-5,0 c-0.276,0-0.5,0.224-0.5,0.5s0.224,0.5,0.5,0.5c0.177,0,4.823,0,5,0c0.276,0,0.5-0.224,0.5-0.5S17.776,49,17.5,49z M22.5,51 c-0.177,0-2.823,0-3,0c-0.276,0-0.5,0.224-0.5,0.5s0.224,0.5,0.5,0.5c0.177,0,2.823,0,3,0c0.276,0,0.5-0.224,0.5-0.5 S22.776,51,22.5,51z"/><path fill="#fff" d="M66.5,21h-10c-0.276,0-0.5-0.224-0.5-0.5s0.224-0.5,0.5-0.5h10c0.276,0,0.5,0.224,0.5,0.5 S66.776,21,66.5,21z M70.5,21h-2c-0.276,0-0.5-0.224-0.5-0.5s0.224-0.5,0.5-0.5h2c0.276,0,0.5,0.224,0.5,0.5S70.776,21,70.5,21z M75.5,23h-10c-0.276,0-0.5-0.224-0.5-0.5s0.224-0.5,0.5-0.5h10c0.276,0,0.5,0.224,0.5,0.5S75.777,23,75.5,23z M63.5,23h-1 c-0.276,0-0.5-0.224-0.5-0.5s0.224-0.5,0.5-0.5h1c0.276,0,0.5,0.224,0.5,0.5S63.776,23,63.5,23z M60.375,23H58.5 c-0.276,0-0.5-0.224-0.5-0.5s0.224-0.5,0.5-0.5h1.875c0.276,0,0.5,0.224,0.5,0.5S60.651,23,60.375,23z M69.5,19h-5 c-0.276,0-0.5-0.224-0.5-0.5s0.224-0.5,0.5-0.5h5c0.276,0,0.5,0.224,0.5,0.5S69.777,19,69.5,19z M66.5,25h-2 c-0.276,0-0.5-0.224-0.5-0.5s0.224-0.5,0.5-0.5h2c0.276,0,0.5,0.224,0.5,0.5S66.776,25,66.5,25z"/><path fill="#fdfcef" d="M83.875,59.5c0,0,3.64,0,6.125,0s4.5-2.015,4.5-4.5c0-2.333-1.782-4.229-4.055-4.455 C90.467,50.364,90.5,50.187,90.5,50c0-2.485-2.015-4.5-4.5-4.5c-1.438,0-2.703,0.686-3.527,1.736 C82.333,44.6,80.171,42.5,77.5,42.5c-2.761,0-5,2.239-5,5c0,0.446,0.077,0.87,0.187,1.282C72.045,48.005,71.086,47.5,70,47.5 c-1.781,0-3.234,1.335-3.455,3.055C66.364,50.533,66.187,50.5,66,50.5c-2.485,0-4.5,2.015-4.5,4.5s2.015,4.5,4.5,4.5s9.5,0,9.5,0 h5.375V60h3V59.5z"/><path fill="#472b29" d="M77.5,42c-3.033,0-5.5,2.467-5.5,5.5c0,0.016,0,0.031,0,0.047C71.398,47.192,70.71,47,70,47 c-1.831,0-3.411,1.261-3.858,3.005C66.095,50.002,66.048,50,66,50c-2.757,0-5,2.243-5,5s2.243,5,5,5h14.875 c0.276,0,0.5-0.224,0.5-0.5s-0.224-0.5-0.5-0.5H66c-2.206,0-4-1.794-4-4s1.794-4,4-4c0.117,0,0.23,0.017,0.343,0.032l0.141,0.019 c0.021,0.003,0.041,0.004,0.062,0.004c0.246,0,0.462-0.185,0.495-0.437C67.232,49.125,68.504,48,70,48 c0.885,0,1.723,0.401,2.301,1.1c0.098,0.118,0.241,0.182,0.386,0.182c0.078,0,0.156-0.018,0.228-0.056 c0.209-0.107,0.314-0.346,0.254-0.573C73.054,48.218,73,47.852,73,47.5c0-2.481,2.019-4.5,4.5-4.5 c2.381,0,4.347,1.872,4.474,4.263c0.011,0.208,0.15,0.387,0.349,0.45c0.05,0.016,0.101,0.024,0.152,0.024 c0.15,0,0.296-0.069,0.392-0.192C83.638,46.563,84.779,46,86,46c2.206,0,4,1.794,4,4c0,0.117-0.017,0.23-0.032,0.343 l-0.019,0.141c-0.016,0.134,0.022,0.268,0.106,0.373s0.207,0.172,0.34,0.185C92.451,51.247,94,52.949,94,55c0,2.206-1.794,4-4,4 h-6.125c-0.276,0-0.5,0.224-0.5,0.5s0.224,0.5,0.5,0.5H90c2.757,0,5-2.243,5-5c0-2.397-1.689-4.413-4.003-4.877 C90.999,50.082,91,50.041,91,50c0-2.757-2.243-5-5-5c-1.176,0-2.293,0.416-3.183,1.164C82.219,43.76,80.055,42,77.5,42L77.5,42z"/><path fill="#472b29" d="M76,49c-1.403,0-2.609,0.999-2.913,2.341C72.72,51.119,72.301,51,71.875,51 c-1.202,0-2.198,0.897-2.353,2.068C69.319,53.022,69.126,53,68.938,53c-1.529,0-2.811,1.2-2.918,2.732 C66.01,55.87,66.114,55.99,66.251,56c0.006,0,0.012,0,0.018,0c0.13,0,0.24-0.101,0.249-0.232 c0.089-1.271,1.151-2.268,2.419-2.268c0.229,0,0.47,0.042,0.738,0.127c0.022,0.007,0.045,0.01,0.067,0.01 c0.055,0,0.11-0.02,0.156-0.054C69.962,53.537,70,53.455,70,53.375c0-1.034,0.841-1.875,1.875-1.875 c0.447,0,0.885,0.168,1.231,0.473c0.047,0.041,0.106,0.063,0.165,0.063c0.032,0,0.063-0.006,0.093-0.019 c0.088-0.035,0.148-0.117,0.155-0.212C73.623,50.512,74.712,49.5,76,49.5c0.208,0,0.425,0.034,0.682,0.107 c0.023,0.007,0.047,0.01,0.07,0.01c0.109,0,0.207-0.073,0.239-0.182c0.038-0.133-0.039-0.271-0.172-0.309 C76.517,49.04,76.256,49,76,49L76,49z M89.883,50.5c-1.326,0-2.508,0.897-2.874,2.182c-0.038,0.133,0.039,0.271,0.172,0.309 C87.205,52.997,87.228,53,87.25,53c0.109,0,0.209-0.072,0.24-0.182C87.795,51.748,88.779,51,89.883,51 c0.117,0,0.23,0.014,0.342,0.029c0.012,0.002,0.023,0.003,0.035,0.003c0.121,0,0.229-0.092,0.246-0.217 c0.019-0.137-0.077-0.263-0.214-0.281C90.158,50.516,90.022,50.5,89.883,50.5L89.883,50.5z"/><path fill="#848484" d="M76.414,68.119l-3.462-6.481c-0.073-0.121-6.863-12.302-20.05-11.623 c2.116-2.304,3.517-3.171,5.026-4.662c0.715,0.406,1.394,0.709,1.928,0.782c0.54,0.079,1.055,0.115,1.546,0.115 c1.146,0,2.158-0.2,3.098-0.54c2.371-0.861,3.941-2.17,4.711-3.917c0.418-0.934,0.34-1.976-0.212-2.862 c-0.558-0.891-1.498-1.449-2.546-1.498c-1.898-0.115-3.159,0.946-4.96,2.092c-0.418,0.261-0.958,0.273-1.37,0 c-2.207-1.498-6.675-3.238-13.514-2.104c-5.25,0.867-9.598,5.917-11.52,8.525c-0.673,0.891,0.085,2.189,1.194,1.989 c0.97-0.176,2.177-0.618,3.601-1.122c1.006-0.352,1.685-1.31,1.685-2.364v-0.734c0-1.255,1.261-2.753,3.777-3.777 c2.268-0.679,5.038,0,8.476,2.522c0.552,0.437,1.261,0.982,2.007,1.522c-1.686,1.679-3.874,3.917-6.148,6.439 c-9.046,1.395-20.705,9.046-20.705,14.703c0,2.522,2.007,2.753,3.777,2.522c7.421,0,13.078-8.779,13.369-9.167 c0.279-0.364,0.564-0.728,0.855-1.085c10.634-2.092,17.752,1.443,20.129,2.631c1.437,0.715,1.31,1.207,1.085,2.116 c-0.091,0.34-0.176,0.703-0.176,1.097c0,2.389,4.638,5.311,6.76,6.499c0.467,0.261,1.049,0.176,1.425-0.206 C76.578,69.155,76.663,68.585,76.414,68.119z M62.791,41.727c0.594-0.528,1.94-1.413,3.905-0.916 c0.2,0.055,0.285,0.273,0.188,0.443c-0.946,1.716-3.044,1.279-3.977,0.982C62.675,42.163,62.609,41.884,62.791,41.727z M43.662,57.866c-1.558,1.789-5.857,6.396-9.495,7.397c-1.091,0.303-2.019-0.934-1.407-1.892 c2.146-3.365,7.791-5.269,10.592-5.996C43.638,57.302,43.856,57.642,43.662,57.866z"/><path fill="#848484" d="M57.597,35.556c1.942,0,3.517,0,3.517-1.259c0-3.778-2.344-6.296-4.689-6.296 c-1.942,0-3.517,2.089-3.517,4.608C52.908,34.694,55.655,35.556,57.597,35.556z"/><path fill="none" stroke="#472b29" stroke-miterlimit="10" stroke-width="1.4" d="M57.597,35.556c1.942,0,3.517,0,3.517-1.259 c0-3.778-2.344-6.296-4.689-6.296c-1.942,0-3.517,2.089-3.517,4.608C52.908,34.694,55.655,35.556,57.597,35.556z"/><path fill="none" stroke="#472b29" stroke-miterlimit="10" stroke-width="1.4" d="M76.412,68.118l-3.46-6.481 c-0.073-0.122-6.86-12.3-20.048-11.623c2.115-2.305,3.515-3.17,5.024-4.66c0.717,0.406,1.393,0.71,1.927,0.781 c0.541,0.076,1.058,0.113,1.549,0.113c1.146,0,2.153-0.201,3.098-0.541c2.367-0.856,3.942-2.166,4.71-3.916 c0.416-0.932,0.34-1.977-0.214-2.859c-0.554-0.894-1.499-1.448-2.544-1.499c-1.901-0.113-3.161,0.945-4.962,2.09 c-0.416,0.265-0.957,0.277-1.373,0c-2.204-1.498-6.674-3.236-13.512-2.103c-5.251,0.869-9.596,5.918-11.522,8.525 c-0.667,0.894,0.088,2.191,1.196,1.99c0.97-0.176,2.179-0.617,3.602-1.121c1.007-0.353,1.687-1.31,1.687-2.367v-0.73 c0-1.259,1.259-2.758,3.778-3.778c2.267-0.68,5.037,0,8.475,2.519c0.554,0.436,1.259,0.985,2.006,1.525 c-1.687,1.676-3.871,3.914-6.148,6.439c-9.044,1.395-20.703,9.047-20.703,14.703c0,2.518,2.006,2.75,3.778,2.518 c7.419,0,13.074-8.775,13.365-9.164c0.279-0.364,0.567-0.726,0.855-1.088c10.637-2.093,17.755,1.444,20.134,2.633 c1.436,0.718,1.31,1.209,1.083,2.116c-0.088,0.34-0.176,0.705-0.176,1.096c0,2.39,4.637,5.313,6.76,6.5 c0.467,0.261,1.047,0.174,1.426-0.204C76.576,69.158,76.661,68.584,76.412,68.118z"/><path fill="#472b29" d="M64.558,42.882c-0.702,0-1.356-0.164-1.762-0.294c-0.237-0.076-0.415-0.27-0.465-0.506 c-0.049-0.235,0.031-0.472,0.216-0.634c0.68-0.599,2.135-1.525,4.237-0.991c0.205,0.052,0.37,0.192,0.452,0.383 c0.083,0.193,0.072,0.41-0.031,0.595C66.576,42.572,65.522,42.882,64.558,42.882z M63.101,41.944 c0.943,0.259,2.618,0.533,3.416-0.794C64.854,40.763,63.688,41.449,63.101,41.944z M63.034,42.002L63.034,42.002 C63.034,42.002,63.034,42.002,63.034,42.002z"/><g><path fill="#472b29" d="M33.839,65.676c-0.508,0-0.996-0.242-1.316-0.675c-0.404-0.548-0.434-1.266-0.075-1.827 c2.31-3.619,8.33-5.51,10.81-6.155c0.29-0.073,0.588,0.045,0.745,0.298c0.155,0.251,0.128,0.569-0.066,0.791 c-1.67,1.916-5.957,6.486-9.67,7.51l0,0C34.125,65.658,33.981,65.676,33.839,65.676z M43.236,57.789 c-2.087,0.56-8.013,2.407-10.166,5.782c-0.234,0.368-0.129,0.754,0.047,0.992c0.18,0.244,0.525,0.463,0.955,0.344l0,0 C37.563,63.945,41.803,59.413,43.236,57.789z"/></g><g><path fill="#fdfcef" d="M41.5,77.5c0,0,1.567,0,3.5,0s3.5-1.567,3.5-3.5c0-1.781-1.335-3.234-3.055-3.455 C45.473,70.366,45.5,70.187,45.5,70c0-1.933-1.567-3.5-3.5-3.5c-1.032,0-1.95,0.455-2.59,1.165 c-0.384-1.808-1.987-3.165-3.91-3.165c-2.209,0-4,1.791-4,4c0,0.191,0.03,0.374,0.056,0.558C31.128,68.714,30.592,68.5,30,68.5 c-1.228,0-2.245,0.887-2.455,2.055C27.366,70.527,27.187,70.5,27,70.5c-1.933,0-3.5,1.567-3.5,3.5s1.567,3.5,3.5,3.5s7.5,0,7.5,0 V78h7V77.5z"/><path fill="#472b29" d="M43.25,73C43.112,73,43,72.888,43,72.75c0-1.223,0.995-2.218,2.218-2.218 c0.034,0.009,0.737-0.001,1.244,0.136c0.133,0.036,0.212,0.173,0.176,0.306c-0.036,0.134-0.173,0.213-0.306,0.176 c-0.444-0.12-1.1-0.12-1.113-0.118c-0.948,0-1.719,0.771-1.719,1.718C43.5,72.888,43.388,73,43.25,73z M36.5,77 c-0.276,0-0.5,0.224-0.5,0.5s0.224,0.5,0.5,0.5s0.5-0.224,0.5-0.5S36.776,77,36.5,77z"/><path fill="#472b29" d="M45,78h-3.5c-0.276,0-0.5-0.224-0.5-0.5s0.224-0.5,0.5-0.5H45c1.654,0,3-1.346,3-3 c0-1.496-1.125-2.768-2.618-2.959c-0.134-0.018-0.255-0.088-0.336-0.196s-0.115-0.244-0.094-0.377C44.975,70.314,45,70.16,45,70 c0-1.654-1.346-3-3-3c-0.85,0-1.638,0.355-2.219,1c-0.125,0.139-0.321,0.198-0.5,0.148c-0.182-0.049-0.321-0.195-0.36-0.379 C38.58,66.165,37.141,65,35.5,65c-1.93,0-3.5,1.57-3.5,3.5c0,0.143,0.021,0.28,0.041,0.418c0.029,0.203-0.063,0.438-0.242,0.54 s-0.396,0.118-0.556-0.01C30.878,69.155,30.449,69,30,69c-0.966,0-1.792,0.691-1.963,1.644c-0.048,0.267-0.296,0.446-0.569,0.405 C27.314,71.025,27.16,71,27,71c-1.654,0-3,1.346-3,3s1.346,3,3,3h7.5c0.276,0,0.5,0.224,0.5,0.5S34.776,78,34.5,78H27 c-2.206,0-4-1.794-4-4s1.794-4,4-4c0.059,0,0.116,0.002,0.174,0.006C27.588,68.82,28.711,68,30,68 c0.349,0,0.689,0.061,1.011,0.18C31.176,65.847,33.126,64,35.5,64c1.831,0,3.466,1.127,4.153,2.774 C40.333,66.276,41.155,66,42,66c2.206,0,4,1.794,4,4c0,0.048-0.001,0.095-0.004,0.142C47.739,70.59,49,72.169,49,74 C49,76.206,47.206,78,45,78z"/><path fill="#472b29" d="M39.5,77c-0.159,0-0.841,0-1,0c-0.276,0-0.5,0.224-0.5,0.5s0.224,0.5,0.5,0.5c0.159,0,0.841,0,1,0 c0.276,0,0.5-0.224,0.5-0.5S39.776,77,39.5,77z"/></g></svg>